<svg xmlns="http://www.w3.org/2000/svg" xmlns:xlink="http://www.w3.org/1999/xlink" width="500" zoomAndPan="magnify" viewBox="0 0 375 374.999991" height="500" preserveAspectRatio="xMidYMid meet" version="1.2"><defs><clipPath id="10ca1f4d19"><path d="M 33.503906 37.5 L 331 37.5 L 331 335.25 L 33.503906 335.25 Z M 33.503906 37.5 "/></clipPath></defs><g id="37fd1fb0ef"><rect x="0" width="375" y="0" height="374.999991" style="fill:#ffffff;fill-opacity:1;stroke:none;"/><rect x="0" width="375" y="0" height="374.999991" style="fill:#ffffff;fill-opacity:1;stroke:none;"/><g clip-rule="nonzero" clip-path="url(#10ca1f4d19)"><path style=" stroke:none;fill-rule:nonzero;fill:#000000;fill-opacity:1;" d="M 183.199219 37.5 C 142.1875 37.5 137.265625 37.5 121.679688 38.320312 C 106.09375 38.320312 94.613281 41.601562 85.589844 44.882812 C 75.746094 48.984375 67.542969 53.90625 59.339844 62.109375 C 51.136719 70.308594 46.21875 78.511719 42.117188 88.355469 C 38.015625 98.199219 35.554688 108.863281 35.554688 124.445312 C 33.914062 141.671875 33.914062 146.59375 33.914062 186.785156 C 33.914062 227.796875 33.914062 232.71875 34.734375 248.304688 C 34.734375 263.886719 38.015625 275.371094 41.296875 284.394531 C 45.398438 294.238281 50.316406 302.441406 58.519531 310.640625 C 66.722656 318.84375 74.925781 323.765625 84.769531 327.867188 C 94.613281 331.96875 105.273438 334.429688 120.859375 334.429688 C 136.445312 334.429688 142.1875 335.25 182.378906 335.25 C 222.570312 335.25 228.3125 335.25 243.898438 334.429688 C 259.480469 334.429688 270.964844 331.148438 279.988281 327.867188 C 289.832031 323.765625 298.03125 318.84375 306.234375 310.640625 C 314.4375 302.441406 319.359375 294.238281 323.460938 284.394531 C 326.742188 274.550781 330.023438 263.886719 330.023438 248.304688 C 330.023438 232.71875 330.84375 226.976562 330.84375 186.785156 C 330.84375 145.773438 330.84375 140.851562 330.023438 125.265625 C 330.023438 109.683594 326.742188 98.199219 323.460938 89.175781 C 319.359375 79.332031 314.4375 71.128906 306.234375 62.925781 C 298.03125 54.726562 289.832031 49.804688 279.988281 45.703125 C 270.144531 41.601562 259.480469 39.140625 243.898438 39.140625 C 229.132812 37.5 224.210938 37.5 183.199219 37.5 Z M 170.074219 64.566406 C 174.175781 64.566406 178.277344 64.566406 183.199219 64.566406 C 223.390625 64.566406 227.492188 64.566406 243.898438 65.386719 C 258.660156 65.386719 266.042969 68.667969 271.785156 70.308594 C 279.167969 72.769531 284.089844 76.050781 289.011719 81.792969 C 293.933594 86.714844 297.210938 91.636719 300.492188 99.019531 C 302.132812 103.941406 304.59375 112.140625 305.414062 126.90625 C 305.414062 142.492188 306.234375 147.414062 306.234375 187.605469 C 306.234375 227.796875 306.234375 231.898438 305.414062 248.304688 C 305.414062 263.066406 302.132812 270.449219 300.492188 276.191406 C 298.03125 283.574219 294.753906 288.496094 289.011719 293.417969 C 284.089844 298.339844 279.167969 301.621094 271.785156 304.902344 C 266.863281 307.363281 258.660156 309.003906 243.898438 309.824219 C 228.3125 309.824219 223.390625 310.640625 183.199219 310.640625 C 143.007812 310.640625 138.90625 310.640625 122.5 309.824219 C 107.734375 309.824219 100.351562 306.542969 94.613281 304.902344 C 87.230469 302.441406 82.308594 299.160156 77.386719 293.417969 C 72.464844 288.496094 69.183594 283.574219 65.902344 276.191406 C 64.261719 271.269531 61.800781 263.066406 60.980469 248.304688 C 60.980469 232.71875 60.160156 227.796875 60.160156 187.605469 C 60.160156 147.414062 60.160156 143.3125 60.980469 126.90625 C 60.980469 112.140625 64.261719 104.761719 65.902344 99.019531 C 68.363281 91.636719 71.644531 86.714844 77.386719 81.792969 C 82.308594 76.871094 87.230469 73.589844 94.613281 70.308594 C 99.53125 67.847656 107.734375 66.207031 122.5 65.386719 C 136.445312 65.386719 141.367188 65.386719 169.253906 64.566406 Z M 183.199219 110.503906 C 140.546875 110.503906 106.09375 144.953125 106.09375 187.605469 C 106.09375 230.257812 140.546875 264.707031 183.199219 264.707031 C 225.851562 264.707031 260.300781 230.257812 260.300781 187.605469 C 260.300781 144.953125 225.851562 110.503906 183.199219 110.503906 Z M 183.199219 137.570312 C 211.085938 137.570312 233.234375 159.71875 233.234375 187.605469 C 233.234375 215.492188 211.085938 237.640625 183.199219 237.640625 C 155.308594 237.640625 133.164062 215.492188 133.164062 187.605469 C 133.164062 159.71875 155.308594 137.570312 183.199219 137.570312 Z M 183.199219 137.570312 "/></g></g></svg>