<svg xmlns="http://www.w3.org/2000/svg" xmlns:xlink="http://www.w3.org/1999/xlink" width="500" zoomAndPan="magnify" viewBox="0 0 375 374.999991" height="500" preserveAspectRatio="xMidYMid meet" version="1.2"><defs><clipPath id="031c90d859"><path d="M 30.800781 24.097656 L 344.300781 24.097656 L 344.300781 337.597656 L 30.800781 337.597656 Z M 30.800781 24.097656 "/></clipPath></defs><g id="bc2f3b9712"><rect x="0" width="375" y="0" height="374.999991" style="fill:#ffffff;fill-opacity:1;stroke:none;"/><rect x="0" width="375" y="0" height="374.999991" style="fill:#ffffff;fill-opacity:1;stroke:none;"/><g clip-rule="nonzero" clip-path="url(#031c90d859)"><path style=" stroke:none;fill-rule:nonzero;fill:#000000;fill-opacity:1;" d="M 187.550781 24.097656 C 100.980469 24.097656 30.800781 94.277344 30.800781 180.847656 C 30.800781 267.417969 100.980469 337.597656 187.550781 337.597656 C 274.121094 337.597656 344.300781 267.417969 344.300781 180.847656 C 344.300781 94.277344 274.121094 24.097656 187.550781 24.097656 Z M 234.199219 179.007812 L 205.726562 179.007812 L 205.726562 269.539062 L 161.996094 269.539062 L 161.996094 179.007812 L 140.996094 179.007812 L 140.898438 144.644531 L 162.53125 144.644531 L 162.53125 132.492188 C 162.53125 107.050781 176.5 92.160156 203.433594 92.160156 L 233.964844 92.160156 L 233.964844 125.703125 L 214.648438 125.703125 C 208.15625 125.703125 204.289062 129.535156 204.289062 136.027344 L 204.289062 144.652344 L 234.195312 144.652344 Z M 234.199219 179.007812 "/></g></g></svg>